<svg height="44" width="55" xmlns="http://www.w3.org/2000/svg"><g fill="none" fill-rule="evenodd"><g fill="#fff" stroke-width="1.6"><rect height="42" rx="4" stroke="#e5e5e5" width="42" x="1.488" y=".803"/><rect height="24" rx="2" stroke="#e7e7e7" width="7.171" x="7.488" y="12.803"/><rect height="3.5" rx="1.75" stroke="#b5a7dd" width="32.17" x="7.488" y="5.803"/><rect height="24" rx="2" stroke="#fde5d8" width="21.17" x="18.488" y="12.803"/></g><rect fill="#e52c5a" height="2.408" rx="1.204" width="7.171" x="21.228" y="15"/><rect fill="#e5e5e5" height="2.408" rx="1.204" width="7.171" x="29.838" y="19.075"/><rect fill="#e5e5e5" height="2.408" rx="1.204" width="15.943" x="21.228" y="27.5"/><rect fill="#e5e5e5" height="2.408" rx="1.204" width="15.943" x="21.228" y="31.5"/><rect fill="#e52c5a" height="2.408" rx="1.204" width="4.78" x="23.399" y="22.075"/><rect fill="#fc8a51" height="2.408" rx="1.204" width="7.171" x="29.96" y="23.232"/><rect fill="#fde5d8" height="2.408" rx="1.195" width="2.39" x="28.179" y="9.232"/><rect fill="#ff8340" height="2.408" rx="1.195" width="2.39" x="10" y="15.653"/><rect fill="#e52c5a" height="2.408" rx="1.195" width="2.39" x="10" y="20"/><rect fill="#ff8340" height="2.408" rx="1.195" width="2.39" x="10" y="32"/><rect fill="#e7e7e7" height="2.408" rx="1.195" width="2.39" x="10" y="28"/><rect fill="#b5a7dd" height="2.408" rx="1.195" width="2.39" x="10" y="24"/><g transform="matrix(.70710678 -.70710678 .70710678 .70710678 18.959457 19.792177)"><ellipse cx="11.951" cy="12.041" fill="#fff" fill-opacity=".1" rx="11.951" ry="12.041" stroke="#6b4fbb" stroke-width="3.2"/><path d="m5.536 22.29c5.716 3.3 13.046 1.307 16.37-4.452 3.326-5.759 1.387-13.103-4.329-16.403" fill="#fff" fill-opacity=".3" stroke="#6b4fbb" stroke-width="3.2"/><rect fill="#6b4fbb" height="13.646" rx="2.39" width="4.78" x="9.561" y="23.279"/></g></g></svg>