<svg height="64" viewBox="0 0 64 64" width="64" xmlns="http://www.w3.org/2000/svg"><g fill="none" fill-rule="evenodd"><g transform="matrix(.70710678 -.70710678 .70710678 .70710678 4.878597 15.777976)"><path d="m1.29333271 4.16413823c-.16884567-2.20503296 1.48918432-3.99256535 3.69591761-3.99256535h3.16829339c2.21004459 0 3.86545129 1.77854739 3.69591759 3.99256535l-3.28006428 42.83586177h-4z" fill="#9f5757"/><path d="m5.54923417 64.5495193s.82481241-3.2117313 2.96227659-6.3441705c2.13746414-3.1324391 4.85604804-2.5221136 4.85604804-6.5215694 0-3.6913494-2.9924299-6.6837794-6.68377939-6.6837794-3.69134944 0-6.68377941 2.99243-6.68377941 6.6837794 0 3.6913495 5.54923417 12.8657399 5.54923417 12.8657399z" fill="#f6443f"/></g><g transform="matrix(.70710678 .70710678 -.70710678 .70710678 49.093585 6.707602)"><path d="m10 6h4m1 0v24" stroke="#4796e7" stroke-linecap="square" stroke-width="2"/><path d="m0 0h11v58h-11z" fill="#4796e7"/><path d="m1 58h9v2h-9z" fill="#b4dffb"/><path d="m4 60h3v4h-3z" fill="#22ba8e"/><path d="m0 0h11v22h-11z" fill="#b4dffb"/></g></g></svg>