<svg width="32" height="32" viewBox="0 0 32 32" fill="none" xmlns="http://www.w3.org/2000/svg">
<path d="M32 16C32 24.8366 24.8366 32 16 32C7.16344 32 0 24.8366 0 16C0 7.16344 7.16344 0 16 0C24.8366 0 32 7.16344 32 16ZM9 16C9 19.866 12.134 23 16 23C19.866 23 23 19.866 23 16C23 12.134 19.866 9 16 9C12.134 9 9 12.134 9 16Z" fill="url(#paint0_linear_490_127)"/>
<path fill-rule="evenodd" clip-rule="evenodd" d="M19.9567 0.49292C20.3306 0.58802 20.6993 0.696285 21.0621 0.817194C14.7421 4.39603 8.88186 8.95862 3.53962 13.8437C2.28578 14.9902 1.12497 16.2002 0.0687286 17.4879C0.0318759 17.0883 0.0097207 16.6844 0.00280762 16.2768C0.927111 15.2098 1.92154 14.197 2.97872 13.2303C8.15557 8.49649 13.8323 4.04838 19.9567 0.49292ZM10.3771 30.9839C9.84557 30.7843 9.32742 30.5573 8.82445 30.3045C8.89524 30.2036 8.96569 30.1024 9.03578 30.001C10.6958 27.5988 12.2626 25.1382 13.7619 22.6345C14.3107 22.8196 14.89 22.9385 15.4902 22.9818C13.8835 25.6871 12.1981 28.349 10.4033 30.9461C10.3946 30.9587 10.3859 30.9713 10.3771 30.9839ZM16.948 31.9724C16.6923 31.9874 16.4351 31.9963 16.1763 31.9991C21.2116 28.538 26.1856 24.9854 31.0886 21.3375C31.0024 21.5811 30.9105 21.822 30.813 22.06C26.2497 25.4454 21.6253 28.7485 16.948 31.9724ZM25.8707 3.40638C25.429 3.05971 24.9686 2.73577 24.4913 2.43633C23.6614 4.18516 22.8115 5.9274 21.9255 7.66337C21.4288 8.63652 20.9296 9.60789 20.4266 10.5767C20.8816 10.9485 21.289 11.3764 21.6381 11.8499C22.233 10.7083 22.8216 9.56418 23.4061 8.4191C24.2559 6.75414 25.0732 5.08241 25.8707 3.40638Z" fill="#FFF7EB"/>
<defs>
<linearGradient id="paint0_linear_490_127" x1="0" y1="32" x2="32" y2="32" gradientUnits="userSpaceOnUse">
<stop stop-color="#FFAC0B"/>
<stop offset="1" stop-color="#FFC702"/>
</linearGradient>
</defs>
</svg>
