<svg xmlns="http://www.w3.org/2000/svg" width="19" height="24" fill="none">
	<path fill="#FFC233" fill-rule="evenodd"
		d="m6.452 14.73 6.453 2.977a3.3 3.3 0 0 1 1.669 1.699c.77 1.8-.283 3.64-1.937 4.302s-3.419.235-4.22-1.636l-2.809-6.57c-.217-.509.33-1.01.844-.772M6.84 12.804l6.66-2.513c2.214-.835 4.632.745 4.6 3.04l-.002.09c-.048 2.236-2.399 3.739-4.564 2.948l-6.688-2.443a.594.594 0 0 1-.007-1.122M6.466 11.934l6.548-2.777c2.176-.922 2.728-3.691 1.024-5.29l-.067-.064C12.3 2.256 9.538 2.801 8.587 4.84l-2.939 6.297c-.234.502.296 1.019.818.798M4.781 10.836l2.38-6.512a3.15 3.15 0 0 0-.064-2.342C6.324.183 4.232-.398 2.577.265.925.93-.01 2.435.794 4.305l2.826 6.562c.22.509.972.489 1.162-.03"
		clip-rule="evenodd"></path>
</svg>