<svg height="24" width="24" xmlns="http://www.w3.org/2000/svg"><g transform="translate(0 -1028.4)"><path d="m3 1030.4c-1.1046 0-2 .9-2 2v7 2 7c0 1.1.8954 2 2 2h9 9c1.105 0 2-.9 2-2v-7-2-7c0-1.1-.895-2-2-2h-9z" fill="#2c3e50"/><g transform="translate(0 1028.4)"><path d="m3 2c-1.1046 0-2 .8954-2 2v3 3 1 1 1 3 3c0 1.105.8954 2 2 2h9 9c1.105 0 2-.895 2-2v-3-4-2-3-3c0-1.1046-.895-2-2-2h-9z" fill="#34495e"/><path d="m4 5.125v1.125l3 1.75-3 1.75v1.125l5-2.875zm5 4.875v1h5v-1z" fill="#ecf0f1"/></g></g></svg>