<svg width="362" height="178" viewBox="0 0 362 178" fill="none" xmlns="http://www.w3.org/2000/svg">
<rect x="28.4157" y="28.4152" width="330.064" height="145.228" rx="24.6448" fill="#212121"/>
<rect x="28.4157" y="28.4152" width="330.064" height="145.228" rx="24.6448" stroke="#212121" stroke-width="7.04136"/>
<rect x="28.4157" y="28.4152" width="330.064" height="145.228" rx="24.6448" fill="#212121"/>
<rect x="28.4157" y="28.4152" width="330.064" height="145.228" rx="24.6448" stroke="#212121" stroke-width="7.04136"/>
<rect x="28.4157" y="28.4152" width="330.064" height="145.228" rx="24.6448" fill="#212121"/>
<rect x="28.4157" y="28.4152" width="330.064" height="145.228" rx="24.6448" stroke="#212121" stroke-width="7.04136"/>
<rect x="28.4157" y="28.4152" width="330.064" height="145.228" rx="24.6448" fill="#212121"/>
<rect x="28.4157" y="28.4152" width="330.064" height="145.228" rx="24.6448" stroke="#212121" stroke-width="7.04136"/>
<path d="M0.440085 28.1654C0.440085 12.8531 12.8531 0.440085 28.1654 0.440085H308.94C316.594 0.440085 323.523 3.54117 328.54 8.55653C333.561 13.5746 336.665 20.5071 336.665 28.1654V124.104C336.665 139.416 324.252 151.829 308.94 151.829H28.1654C20.5113 151.829 13.5822 148.728 8.56477 143.713C3.54457 138.695 0.440085 131.762 0.440085 124.104V28.1654Z" fill="#212121" stroke="#212121" stroke-width="0.88017"/>
<path d="M337.526 125.147L361.559 149.18C361.462 164.348 349.184 176.626 334.016 176.723L309.983 152.69C324.952 152.153 336.989 140.116 337.526 125.147Z" fill="#212121" stroke="#212121" stroke-width="0.88017" stroke-linejoin="round"/>
<path d="M337.545 29.2275L361.56 53.2423V147.936L337.545 123.921V29.2275Z" fill="#212121" stroke="#212121" stroke-width="0.88017" stroke-linejoin="round"/>
<path d="M337.544 27.9824C337.511 22.7123 336.053 17.78 333.536 13.5519L353.435 33.4513L353.435 33.4513C358.217 38.2318 361.261 44.7494 361.539 51.977L337.544 27.9824Z" fill="#212121" stroke="#212121" stroke-width="0.88017" stroke-linejoin="round"/>
<path d="M328.54 8.55653L348.448 28.4642C344.22 25.9468 339.287 24.4884 334.017 24.4555L310.023 0.460854C317.246 0.738317 323.76 3.77883 328.54 8.55647C328.54 8.55649 328.54 8.55651 328.54 8.55653Z" fill="#212121" stroke="#212121" stroke-width="0.88017" stroke-linejoin="round"/>
<path d="M29.228 152.71H308.757L332.772 176.724H53.2428L29.228 152.71Z" fill="#212121" stroke="#212121" stroke-width="0.88017" stroke-linejoin="round"/>
<path d="M308.757 0.440085L332.772 24.4549H53.2428L29.228 0.440085H308.757Z" fill="#212121" stroke="#212121" stroke-width="0.88017" stroke-linejoin="round"/>
<path d="M33.4595 168.607L13.5519 148.7C17.7799 151.217 22.7122 152.675 27.9823 152.708L51.9769 176.703C44.7536 176.425 38.2392 173.385 33.4596 168.607C33.4595 168.607 33.4595 168.607 33.4595 168.607Z" fill="#212121" stroke="#212121" stroke-width="0.88017" stroke-linejoin="round"/>
<path d="M8.56477 143.712C3.78235 138.932 0.738478 132.414 0.460854 125.187L24.4555 149.181C24.4884 154.451 25.9468 159.384 28.4642 163.612L8.56484 143.712L8.56477 143.712Z" fill="#212121" stroke="#212121" stroke-width="0.88017" stroke-linejoin="round"/>
<path d="M0.440085 29.2275L24.4549 53.2423V147.936L0.440085 123.921V29.2275Z" fill="#212121" stroke="#212121" stroke-width="0.88017" stroke-linejoin="round"/>
<path d="M52.0166 24.4736C37.0481 25.0104 25.0104 37.0481 24.4736 52.0166L0.440668 27.9837C0.538018 12.8156 12.8156 0.538018 27.9837 0.440668L52.0166 24.4736Z" fill="#212121" stroke="#212121" stroke-width="0.88017" stroke-linejoin="round"/>
<rect x="24.895" y="24.8945" width="337.105" height="152.269" rx="28.1654" fill="#212121"/>
<rect x="31.9364" y="31.9359" width="323.022" height="138.187" rx="21.1241" fill="white"/>
<path d="M115.336 80.1996V107.463C115.336 112.397 111.878 115.961 106.565 115.961C101.272 115.961 97.793 112.397 97.793 107.463V80.1996H88.663V108.243C88.663 117.69 95.7899 123.994 106.565 123.994C117.297 123.994 124.466 117.69 124.466 108.243V80.1996H115.336ZM144.077 80.1996H134.947V123.383H144.077V80.1996ZM169.624 87.7271H182.845V123.383H191.869V87.7271H205.09V80.1996H169.624V87.7271ZM213.731 123.383H222.713V90.9954H213.731V123.383ZM218.243 86.8204C220.921 86.8204 223.114 84.7751 223.114 82.2659C223.114 79.7778 220.921 77.7325 218.243 77.7325C215.587 77.7325 213.394 79.7778 213.394 82.2659C213.394 84.7751 215.587 86.8204 218.243 86.8204ZM232.878 135.528H241.86V118.196H242.134C243.378 120.895 246.098 123.91 251.328 123.91C258.708 123.91 264.464 118.069 264.464 107.231C264.464 96.0981 258.455 90.5737 251.349 90.5737C245.93 90.5737 243.336 93.7998 242.134 96.4354H241.734V90.9954H232.878V135.528ZM241.67 107.189C241.67 101.412 244.116 97.7217 248.481 97.7217C252.93 97.7217 255.292 101.58 255.292 107.189C255.292 112.84 252.888 116.762 248.481 116.762C244.159 116.762 241.67 112.967 241.67 107.189ZM300.368 100.231C299.567 94.2636 294.76 90.5737 286.579 90.5737C278.292 90.5737 272.831 94.4112 272.852 100.653C272.831 105.502 275.888 108.644 282.214 109.909L287.823 111.027C290.648 111.596 291.934 112.629 291.976 114.253C291.934 116.172 289.847 117.542 286.705 117.542C283.5 117.542 281.37 116.172 280.822 113.536L271.987 114C272.831 120.199 278.102 124.015 286.684 124.015C295.076 124.015 301.085 119.735 301.106 113.346C301.085 108.665 298.028 105.861 291.744 104.574L285.883 103.394C282.867 102.74 281.75 101.707 281.771 100.147C281.75 98.2066 283.943 96.9415 286.726 96.9415C289.847 96.9415 291.702 98.6494 292.145 100.737L300.368 100.231Z" fill="#212121"/>
<rect x="31.9364" y="31.9359" width="323.022" height="138.187" rx="21.1241" stroke="#212121" stroke-width="14.0827"/>
</svg>
